#!OML:ASF F:\VICON\USERDATA\INSTALL\Justin_Nancy\Justin_Nancy.ASF
:FULLY-SPECIFIED
:DEGREES
234
root -10.2819 17.6649 -1.15279 1.83216 19.4266 -3.87932
lowerback 7.08801 0.466439 3.2685
upperback 0.641568 0.988933 2.81623
thorax -3.30839 0.468701 0.978121
lowerneck -15.9391 -3.36621 -9.36611
upperneck 23.9907 -2.95779 3.26728
head 10.543 -1.79716 2.33823
rclavicle -5.29761e-014 1.11319e-014
rhumerus -31.4163 -10.6629 -75.393
rradius 31.728
rwrist 3.04184
rhand -13.3143 13.0294
rfingers 7.12502
rthumb 12.7903 -16.5588
lclavicle -5.29761e-014 1.11319e-014
lhumerus -34.2946 9.84392 84.6561
lradius 28.567
lwrist -9.56511
lhand -17.9823 23.819
lfingers 7.12502
lthumb 8.28744 53.6364
rfemur -2.18072 3.10389 24.6749
rtibia 16.8133
rfoot -14.0303 -3.20022
rtoes 4.46021
lfemur -32.8908 7.0877 -18.9073
ltibia 43.086
lfoot -11.6985 5.20677
ltoes -3.63048
235
root -10.2493 17.6636 -1.03749 1.93846 19.8358 -4.05415
lowerback 7.08754 0.53733 3.52876
upperback 0.46496 1.10857 2.73968
thorax -3.48417 0.520584 0.741054
lowerneck -15.3836 -3.64654 -9.63719
upperneck 23.9444 -3.41104 3.55419
head 10.463 -1.99814 2.42769
rclavicle -7.15625e-014 4.37326e-015
rhumerus -31.8125 -10.6769 -75.3223
rradius 31.2849
rwrist 5.60991
rhand -13.5825 13.1206
rfingers 7.12502
rthumb 12.5317 -16.4836
lclavicle -7.15625e-014 4.37326e-015
lhumerus -34.5287 10.3525 84.2369
lradius 28.0671
lwrist -10.0963
lhand -17.704 22.614
lfingers 7.12502
lthumb 8.556 52.4207
rfemur -1.54032 3.11939 24.9563
rtibia 16.1366
rfoot -13.9322 -3.57139
rtoes 4.06171
lfemur -33.099 6.75176 -18.7661
ltibia 41.0065
lfoot -11.4683 5.78855
ltoes -4.51836
236
root -10.216 17.6611 -0.921426 2.03331 20.2655 -4.13762
lowerback 7.07649 0.577383 3.65851
upperback 0.255394 1.17522 2.60664
thorax -3.68925 0.546157 0.523583
lowerneck -15.1764 -3.33232 -9.04094
upperneck 23.8546 -3.10493 3.39686
head 10.3498 -1.82152 2.31565
rclavicle 1.799e-014 1.23246e-014
rhumerus -32.1602 -10.5552 -75.3701
rradius 31.0694
rwrist 7.0025
rhand -13.9259 13.4008
rfingers 7.12502
rthumb 12.2006 -16.2234
lclavicle 1.799e-014 1.23246e-014
lhumerus -35.1424 10.3394 83.8779
lradius 28.0714
lwrist -9.99081
lhand -17.4714 22.6997
lfingers 7.12502
lthumb 8.78042 52.497
rfemur -0.81034 3.13091 25.1596
rtibia 15.3908
rfoot -13.8559 -3.94418
rtoes 4.09999
lfemur -33.2721 6.51195 -18.7612
ltibia 38.9501
lfoot -11.0754 6.37231
ltoes -5.66888
237
root -10.1772 17.6561 -0.82059 2.0497 20.6264 -4.33074
lowerback 7.28164 0.56311 3.93685
upperback -0.000184391 1.19875 2.51608
thorax -4.06255 0.544363 0.268638
lowerneck -14.794 -3.15927 -8.73962
upperneck 23.867 -2.97077 3.3792
head 10.2634 -1.73692 2.28096
rclavicle -3.72721e-015 -1.63003e-014
rhumerus -32.6219 -10.5516 -75.3835
rradius 31.5885
rwrist 6.85263
rhand -13.121 12.9958
rfingers 7.12502
rthumb 12.9765 -16.5806
lclavicle -3.72721e-015 -1.63003e-014
lhumerus -35.7672 10.6423 83.3628
lradius 27.8913
lwrist -10.1011
lhand -17.3126 21.9439
lfingers 7.12502
lthumb 8.93368 51.7348
rfemur -0.000396118 2.95035 25.417
rtibia 14.4638
rfoot -13.5664 -4.0893
rtoes 4.57742
lfemur -33.3685 6.01798 -18.5528
ltibia 36.9179
lfoot -10.8926 7.42166
ltoes -6.34843
238
root -10.1392 17.6549 -0.721363 2.13576 20.9394 -4.6056
lowerback 7.45092 0.582648 4.27491
upperback -0.274001 1.27426 2.45421
thorax -4.43343 0.565335 0.00458202
lowerneck -14.3894 -3.13123 -8.49853
upperneck 23.8076 -3.01312 3.31824
head 10.1607 -1.74313 2.21608
rclavicle 7.95139e-015 -1.63003e-014
rhumerus -33.0899 -10.5246 -75.3774
rradius 32.101
rwrist 6.98564
rhand -12.8277 12.5903
rfingers 7.12502
rthumb 13.2593 -16.968
lclavicle 7.95139e-015 -1.63003e-014
lhumerus -36.3733 10.7999 82.9204
lradius 27.777
lwrist -10.2989
lhand -17.1 20.6829
lfingers 7.12502
lthumb 9.13883 50.4649
rfemur 0.677868 3.05154 25.7694
rtibia 13.5007
rfoot -13.1558 -4.43936
rtoes 4.44159
lfemur -33.4713 5.072 -18.044
ltibia 34.8945
lfoot -10.8721 8.6006
ltoes -4.86931
239
root -10.0976 17.66 -0.602402 2.3155 21.2234 -4.76775
lowerback 7.14387 0.670132 4.36923
upperback -0.365124 1.38336 2.45136
thorax -4.34996 0.61776 -0.0590553
lowerneck -14.0058 -3.12275 -8.33326
upperneck 23.5865 -3.06712 3.28981
head 10.007 -1.75571 2.1725
rclavicle 3.46382e-014 1.19271e-015
rhumerus -32.866 -10.1789 -75.3881
rradius 31.8995
rwrist 6.9305
rhand -13.3967 13.2466
rfingers 7.12502
rthumb 12.7108 -16.3466
lclavicle 3.46382e-014 1.19271e-015
lhumerus -36.7318 10.5341 82.9317
lradius 27.8553
lwrist -9.72882
lhand -17.0677 20.2224
lfingers 7.12502
lthumb 9.17002 50.003
rfemur 1.3302 3.34572 26.0312
rtibia 12.6361
rfoot -12.8831 -4.91134
rtoes 4.16841
lfemur -33.5346 4.2358 -17.6437
ltibia 32.8433
lfoot -10.9351 9.87743
ltoes -2.84282
240
root -10.0516 17.6562 -0.480898 2.52963 21.6078 -4.76688
lowerback 6.75599 0.703866 4.3453
upperback -0.416024 1.40124 2.40182
thorax -4.18285 0.628994 -0.0934766
lowerneck -13.7145 -3.04501 -8.1854
upperneck 23.4263 -3.02082 3.30392
head 9.88738 -1.71909 2.15999
rclavicle -2.66868e-014 -1.47101e-014
rhumerus -32.6688 -9.74749 -75.4702
rradius 31.827
rwrist 6.62579
rhand -13.8365 13.8624
rfingers 7.12502
rthumb 12.2868 -15.7567
lclavicle -2.66868e-014 -1.47101e-014
lhumerus -37.0432 10.8008 82.6859
lradius 27.7004
lwrist -9.74391
lhand -17.1036 19.7777
lfingers 7.12502
lthumb 9.13534 49.5598
rfemur 2.04182 3.1599 26.0855
rtibia 11.7983
rfoot -12.7205 -5.10477
rtoes 3.18769
lfemur -33.6026 3.4986 -17.4858
ltibia 30.8199
lfoot -10.957 10.8169
ltoes -2.09767
241
root -9.99817 17.6495 -0.369025 2.66309 21.9048 -4.66645
lowerback 6.78946 0.74136 4.41069
upperback -0.614803 1.45915 2.22105
thorax -4.40069 0.647688 -0.324771
lowerneck -13.3794 -2.9983 -8.14838
upperneck 23.4656 -3.05224 3.54532
head 9.84094 -1.7055 2.23844
rclavicle -6.95746e-014 -2.22639e-014
rhumerus -32.9121 -9.9648 -75.4469
rradius 32.0271
rwrist 6.70853
rhand -13.2556 13.4935
rfingers 7.12502
rthumb 12.8468 -16.0912
lclavicle -6.95746e-014 -2.22639e-014
lhumerus -37.5821 11.0122 82.1556
lradius 27.407
lwrist -9.88548
lhand -17.2381 19.5456
lfingers 7.12502
lthumb 9.00556 49.3334
rfemur 2.78952 2.68919 25.9725
rtibia 11.0457
rfoot -12.632 -5.04605
rtoes 1.97393
lfemur -33.5397 2.7626 -17.4394
ltibia 28.8216
lfoot -11.1573 11.8623
ltoes -2.60887
242
root -9.94326 17.6406 -0.263243 2.80069 21.9672 -4.69784
lowerback 6.79054 0.813271 4.5443
upperback -0.562608 1.56168 2.18011
thorax -4.33859 0.696496 -0.451977
lowerneck -13.943 -3.02516 -8.27759
upperneck 23.6673 -3.02885 3.61545
head 10.023 -1.69596 2.28554
rclavicle 1.91827e-014 1.98785e-015
rhumerus -32.2617 -9.78455 -75.4785
rradius 31.9687
rwrist 6.52781
rhand -12.8659 13.0624
rfingers 7.12502
rthumb 13.2224 -16.4982
lclavicle 1.91827e-014 1.98785e-015
lhumerus -37.4667 11.8121 81.8056
lradius 27.0172
lwrist -10.3892
lhand -17.1395 18.6203
lfingers 7.12502
lthumb 9.10073 48.4039
rfemur 3.28268 2.52055 25.9754
rtibia 10.5347
rfoot -12.5282 -5.02611
rtoes 1.01065
lfemur -33.4942 1.87199 -17.0992
ltibia 26.9108
lfoot -11.3368 13.3757
ltoes -2.45681
243
root -9.89449 17.6368 -0.150809 2.91562 21.9871 -4.67656
lowerback 6.62861 0.80711 4.33857
upperback -0.237227 1.51843 2.32812
thorax -3.91903 0.69287 -0.174587
lowerneck -15.2451 -3.02508 -8.48919
upperneck 24.0519 -2.82967 3.49095
head 10.4025 -1.63314 2.29766
rclavicle -6.85807e-015 -3.97569e-015
rhumerus -31.014 -9.22508 -75.5543
rradius 31.7544
rwrist 6.13803
rhand -13.2234 13.3176
rfingers 7.12502
rthumb 12.8779 -16.2651
lclavicle -6.85807e-015 -3.97569e-015
lhumerus -36.8044 13.2345 81.653
lradius 26.4021
lwrist -10.8839
lhand -17.0262 18.1984
lfingers 7.12502
lthumb 9.21003 47.9773
rfemur 3.7896 2.54281 26.0043
rtibia 10.1564
rfoot -12.3459 -5.2144
rtoes 0.641389
lfemur -33.3572 0.696524 -16.5937
ltibia 25.1868
lfoot -10.8531 14.1697
ltoes 4.07829
